<svg width="27" height="28" viewBox="0 0 27 28" fill="none" xmlns="http://www.w3.org/2000/svg">
<path opacity="0.5" d="M0 9.2219C0 4.12879 4.12879 0 9.2219 0H10.0058C15.0989 0 19.2277 4.12879 19.2277 9.2219V9.49856C19.2277 14.5917 15.0989 18.7205 10.0058 18.7205H1.38329C0.61932 18.7205 0 18.1012 0 17.3372V9.2219Z" fill="#4AC6F4"/>
<path opacity="0.9" d="M24.3517 13.6245C27.4486 15.3528 27.6842 19.706 24.6148 21.4828C20.7888 23.6975 17.2937 25.2662 13.2683 27.2014C9.95546 28.7939 6.00374 26.4161 6.01158 22.7404L6.03514 11.6385C6.04293 7.94733 10.0128 5.62226 13.236 7.42104L24.3517 13.6245Z" fill="#3E46F4"/>
</svg>
